ply
format ascii 1.0
element vertex 1896
property float x
property float y
property float z
property uchar red
property uchar green
property uchar blue
end_header
0.150157 0.037867 0.717000 155 148 140
0.152224 0.037920 0.718000 158 151 143
0.154297 0.037973 0.719000 115 106 99
0.156157 0.037973 0.719000 120 113 105
0.150157 0.039722 0.717000 151 146 142
0.152224 0.039778 0.718000 148 143 139
0.154297 0.039833 0.719000 108 100 97
0.156157 0.039833 0.719000 115 106 101
0.158018 0.039833 0.719000 113 106 100
0.148095 0.041520 0.716000 130 125 121
0.150157 0.041578 0.717000 141 136 132
0.152224 0.041636 0.718000 143 138 134
0.154297 0.041694 0.719000 110 101 104
0.156157 0.041694 0.719000 113 105 102
0.158018 0.041694 0.719000 111 107 100
0.148095 0.043372 0.716000 143 145 134
0.149948 0.043372 0.716000 130 132 123
0.152012 0.043433 0.717000 117 119 110
0.154082 0.043493 0.718000 102 102 98
0.155940 0.043493 0.718000 105 101 102
0.157798 0.043493 0.718000 106 103 98
0.147888 0.045162 0.715000 147 148 139
0.149948 0.045225 0.716000 134 139 127
0.152012 0.045288 0.717000 123 128 116
0.154082 0.045351 0.718000 102 102 98
0.155940 0.045351 0.718000 103 103 99
0.157798 0.045351 0.718000 107 102 98
0.147888 0.047012 0.715000 143 141 133
0.149948 0.047078 0.716000 152 153 144
0.151800 0.047078 0.716000 115 116 107
0.154082 0.047209 0.718000 108 103 99
0.155940 0.047209 0.718000 107 102 98
0.157798 0.047209 0.718000 111 103 100
0.147681 0.048794 0.714000 123 124 113
0.149948 0.048930 0.716000 115 112 107
0.151800 0.048930 0.716000 98 95 90
0.153868 0.048999 0.717000 106 101 97
0.155723 0.048999 0.717000 109 105 98
0.157798 0.049067 0.718000 113 109 102
0.147681 0.050641 0.714000 102 103 99
0.149738 0.050712 0.715000 105 106 102
0.151800 0.050783 0.716000 103 104 100
0.153868 0.050854 0.717000 104 104 98
0.155723 0.050854 0.717000 110 111 102
0.157578 0.050854 0.717000 112 113 104
0.147681 0.052489 0.714000 97 98 92
0.149738 0.052562 0.715000 101 105 98
0.151800 0.052636 0.716000 102 106 99
0.153868 0.052709 0.717000 117 121 114
0.155723 0.052709 0.717000 121 125 118
0.157578 0.052709 0.717000 123 128 118
0.147474 0.054260 0.713000 101 99 91
0.149738 0.054412 0.715000 100 104 97
0.151800 0.054488 0.716000 116 120 113
0.153868 0.054565 0.717000 117 124 116
0.155723 0.054565 0.717000 120 129 120
0.157578 0.054565 0.717000 128 133 123
0.147474 0.056105 0.713000 99 92 84
0.149738 0.056262 0.715000 107 105 97
0.151800 0.056341 0.716000 113 111 103
0.153653 0.056341 0.716000 124 128 121
0.155506 0.056341 0.716000 126 134 123
0.157358 0.056341 0.716000 130 132 123
0.147474 0.057950 0.713000 99 92 84
0.149529 0.058031 0.714000 109 102 96
0.151588 0.058113 0.715000 111 104 98
0.153653 0.058194 0.716000 124 126 117
0.155506 0.058194 0.716000 129 131 120
0.157358 0.058194 0.716000 133 131 121
0.142776 0.059376 0.708000 111 88 40
0.145017 0.059543 0.710000 97 85 65
0.147268 0.059711 0.712000 90 81 72
0.149319 0.059795 0.713000 107 100 94
0.151376 0.059879 0.714000 110 103 97
0.153438 0.059963 0.715000 107 103 96
0.155506 0.060047 0.716000 113 108 104
0.157358 0.060047 0.716000 104 96 93
0.142575 0.061121 0.707000 112 87 38
0.144813 0.061294 0.709000 120 109 86
0.147061 0.061467 0.711000 115 108 98
0.149110 0.061553 0.712000 102 98 91
0.151164 0.061640 0.713000 107 103 96
0.153224 0.061726 0.714000 109 105 98
0.155289 0.061813 0.715000 104 102 94
0.156919 0.061726 0.714000 104 99 95
0.139949 0.062594 0.703000 129 106 58
0.142373 0.062862 0.706000 124 101 53
0.144608 0.063040 0.708000 124 118 94
0.146854 0.063218 0.710000 122 121 106
0.148901 0.063307 0.711000 122 124 113
0.150952 0.063396 0.712000 127 132 122
0.153009 0.063485 0.713000 119 124 114
0.154854 0.063485 0.713000 103 105 96
0.156699 0.063485 0.713000 118 119 110
0.137540 0.064139 0.700000 152 125 20
0.139750 0.064322 0.702000 141 112 61
0.141768 0.064413 0.703000 143 114 63
0.144404 0.064780 0.707000 137 118 101
0.146440 0.064872 0.708000 129 120 111
0.148691 0.065055 0.710000 133 138 126
0.150740 0.065146 0.711000 136 144 133
0.152795 0.065238 0.712000 134 142 131
0.154637 0.065238 0.712000 107 108 102
0.156479 0.065238 0.712000 135 133 125
0.158322 0.065238 0.712000 99 97 89
0.134954 0.065573 0.696000 161 131 6
0.137147 0.065761 0.698000 155 126 15
0.139352 0.065950 0.700000 132 104 44
0.141768 0.066233 0.703000 141 113 53
0.143791 0.066327 0.704000 134 116 94
0.146027 0.066515 0.706000 135 127 115
0.148272 0.066704 0.708000 133 134 123
0.150528 0.066892 0.710000 146 154 143
0.152580 0.066986 0.711000 146 154 143
0.154420 0.066986 0.711000 127 132 122
0.156260 0.066986 0.711000 125 123 115
0.158099 0.066986 0.711000 139 140 131
0.132579 0.067084 0.693000 172 137 10
0.134566 0.067180 0.694000 170 135 10
0.136754 0.067374 0.696000 167 134 10
0.138954 0.067568 0.698000 143 118 30
0.141163 0.067761 0.700000 116 95 62
0.143587 0.068052 0.703000 121 100 67
0.145613 0.068148 0.704000 124 114 100
0.147853 0.068342 0.706000 138 136 126
0.150104 0.068536 0.708000 140 145 135
0.151936 0.068536 0.708000 138 143 133
0.153985 0.068632 0.709000 132 134 125
0.155820 0.068632 0.709000 145 146 137
0.157655 0.068632 0.709000 115 115 111
0.159489 0.068632 0.709000 105 104 104
0.130031 0.068479 0.689000 175 141 11
0.132005 0.068579 0.690000 174 140 10
0.134372 0.068877 0.693000 170 135 10
0.136361 0.068976 0.694000 163 128 5
0.138555 0.069175 0.696000 150 122 22
0.140961 0.069473 0.699000 122 103 60
0.143179 0.069672 0.701000 112 93 50
0.145406 0.069871 0.703000 104 95 78
0.147435 0.069970 0.704000 107 103 94
0.149680 0.070169 0.706000 129 127 117
0.151722 0.070268 0.707000 147 145 135
0.153768 0.070368 0.708000 122 118 109
0.155600 0.070368 0.708000 118 116 108
0.157432 0.070368 0.708000 108 104 105
0.159264 0.070368 0.708000 106 102 103
0.127689 0.069956 0.686000 174 137 4
0.129653 0.070058 0.687000 177 140 9
0.131813 0.070262 0.689000 176 139 8
0.133790 0.070364 0.690000 173 135 9
0.136165 0.070670 0.693000 163 130 4
0.138356 0.070874 0.695000 157 127 11
0.140356 0.070976 0.696000 135 108 53
0.142974 0.071384 0.700000 137 110 55
0.144992 0.071486 0.701000 115 99 78
0.147225 0.071690 0.703000 110 99 92
0.149256 0.071792 0.704000 105 96 89
0.151507 0.071996 0.706000 112 103 96
0.153551 0.072098 0.707000 119 108 101
0.155600 0.072200 0.708000 114 105 98
0.157432 0.072200 0.708000 111 104 98
0.159264 0.072200 0.708000 109 102 96
0.123777 0.071522 0.684000 176 135 3
0.125547 0.071522 0.684000 176 137 4
0.127503 0.071627 0.685000 173 136 3
0.129464 0.071731 0.686000 174 137 6
0.131431 0.071836 0.687000 172 138 6
0.133596 0.072045 0.689000 171 137 5
0.135576 0.072149 0.690000 160 131 0
0.137958 0.072463 0.693000 153 121 4
0.140155 0.072672 0.695000 138 111 46
0.142362 0.072881 0.697000 137 110 45
0.144786 0.073195 0.700000 131 108 87
0.146806 0.073300 0.701000 121 110 101
0.149044 0.073509 0.703000 120 113 105
0.151078 0.073613 0.704000 113 106 98
0.153334 0.073822 0.706000 114 105 98
0.155380 0.073927 0.707000 107 98 91
0.157432 0.074032 0.708000 111 104 98
0.159264 0.074032 0.708000 108 104 97
0.121829 0.073185 0.683000 175 134 2
0.123596 0.073185 0.683000 174 133 1
0.125364 0.073185 0.683000 175 136 3
0.127131 0.073185 0.683000 174 135 2
0.129087 0.073292 0.684000 174 137 4
0.131048 0.073399 0.685000 172 138 4
0.133015 0.073506 0.686000 169 135 1
0.135379 0.073828 0.689000 168 136 3
0.137759 0.074149 0.692000 164 132 15
0.139953 0.074363 0.694000 149 115 35
0.142157 0.074578 0.696000 143 109 29
0.144579 0.074899 0.699000 120 91 66
0.146597 0.075006 0.700000 118 105 92
0.149044 0.075328 0.703000 125 119 106
0.151078 0.075435 0.704000 142 136 123
0.153334 0.075649 0.706000 140 138 126
0.155380 0.075756 0.707000 135 133 125
0.157210 0.075756 0.707000 109 104 100
0.159264 0.075864 0.708000 108 103 99
0.119886 0.074842 0.682000 180 139 9
0.121294 0.074623 0.680000 177 136 4
0.123053 0.074623 0.680000 180 139 7
0.124813 0.074623 0.680000 177 136 4
0.126759 0.074733 0.681000 179 140 7
0.128710 0.074842 0.682000 177 140 7
0.130666 0.074952 0.683000 171 137 3
0.132821 0.075172 0.685000 170 136 2
0.134986 0.075391 0.687000 167 135 0
0.137361 0.075720 0.690000 163 129 10
0.139751 0.076049 0.693000 153 116 30
0.142157 0.076379 0.696000 151 114 28
0.144165 0.076488 0.697000 137 110 73
0.146597 0.076818 0.700000 125 116 99
0.148832 0.077037 0.702000 121 117 106
0.150863 0.077147 0.703000 118 114 103
0.153117 0.077366 0.705000 142 140 130
0.155161 0.077476 0.706000 118 116 108
0.157210 0.077586 0.707000 111 106 102
0.159039 0.077586 0.707000 106 103 98
0.117948 0.076495 0.681000 179 140 7
0.119534 0.076382 0.680000 178 140 3
0.120937 0.076158 0.678000 177 137 1
0.122692 0.076158 0.678000 179 139 3
0.124629 0.076270 0.679000 178 139 6
0.126573 0.076382 0.680000 179 140 7
0.128332 0.076382 0.680000 177 140 7
0.130474 0.076607 0.682000 172 135 4
0.132627 0.076832 0.684000 172 135 4
0.134986 0.077169 0.687000 168 136 5
0.137162 0.077393 0.689000 164 130 11
0.139751 0.077843 0.693000 154 118 25
0.141953 0.078067 0.695000 151 115 22
0.144165 0.078292 0.697000 138 112 68
0.146597 0.078629 0.700000 124 117 100
0.148620 0.078741 0.701000 122 120 108
0.150863 0.078966 0.703000 120 118 106
0.153117 0.079191 0.705000 115 113 103
0.155161 0.079303 0.706000 115 113 105
0.157210 0.079415 0.707000 110 107 102
0.159039 0.079415 0.707000 108 108 104
0.114760 0.078487 0.683000 179 140 9
0.116015 0.078142 0.680000 181 142 11
0.117602 0.078027 0.679000 179 140 7
0.119007 0.077797 0.677000 180 141 8
0.120759 0.077797 0.677000 179 141 4
0.122511 0.077797 0.677000 181 143 6
0.124262 0.077797 0.677000 180 142 5
0.126200 0.077912 0.678000 180 142 5
0.128332 0.078142 0.680000 179 141 4
0.130283 0.078257 0.681000 183 144 11
0.132433 0.078487 0.683000 175 136 3
0.134790 0.078831 0.686000 171 133 9
0.137162 0.079176 0.689000 164 130 11
0.139550 0.079521 0.692000 150 117 18
0.141953 0.079866 0.695000 146 113 14
0.144165 0.080095 0.697000 136 107 56
0.146597 0.080440 0.700000 119 105 90
0.148832 0.080670 0.702000 117 110 104
0.150863 0.080785 0.703000 100 97 92
0.152900 0.080900 0.704000 106 103 98
0.155161 0.081130 0.706000 112 111 111
0.157210 0.081245 0.707000 147 146 146
0.159039 0.081245 0.707000 145 142 137
0.112827 0.080136 0.682000 182 141 11
0.114256 0.079901 0.680000 181 140 8
0.115503 0.079549 0.677000 182 141 9
0.117255 0.079549 0.677000 182 141 9
0.118655 0.079314 0.675000 182 141 9
0.120224 0.079196 0.674000 181 142 9
0.122149 0.079314 0.675000 181 142 9
0.124079 0.079431 0.676000 182 143 10
0.126014 0.079549 0.677000 180 142 5
0.127955 0.079666 0.678000 179 141 4
0.130092 0.079901 0.680000 176 138 1
0.132433 0.080254 0.683000 175 137 0
0.134593 0.080489 0.685000 174 134 12
0.137162 0.080959 0.689000 167 130 15
0.139550 0.081311 0.692000 151 118 21
0.141749 0.081546 0.694000 147 114 17
0.144165 0.081899 0.697000 121 94 43
0.146597 0.082252 0.700000 112 95 81
0.148832 0.082487 0.702000 102 90 88
0.150863 0.082604 0.703000 99 94 90
0.153117 0.082839 0.705000 102 97 93
0.155161 0.082957 0.706000 126 126 126
0.157210 0.083074 0.707000 137 136 138
0.159039 0.083074 0.707000 147 145 137
0.005362 0.084783 0.706000 130 117 66
0.007178 0.084663 0.705000 128 113 62
0.009003 0.084663 0.705000 126 110 64
0.010811 0.084543 0.704000 121 104 65
0.012633 0.084543 0.704000 117 102 65
0.014434 0.084423 0.703000 115 100 63
0.016276 0.084543 0.704000 115 101 68
0.018124 0.084663 0.705000 155 144 119
0.019976 0.084783 0.706000 134 136 118
0.021803 0.084783 0.706000 97 90 80
0.023663 0.084903 0.707000 101 94 84
0.025529 0.085024 0.708000 104 97 89
0.027361 0.085024 0.708000 102 98 91
0.029193 0.085024 0.708000 119 120 111
0.031069 0.085144 0.709000 125 126 117
0.107848 0.082141 0.684000 171 136 11
0.109458 0.082021 0.683000 170 135 8
0.110737 0.081661 0.680000 179 140 9
0.112331 0.081541 0.679000 183 143 7
0.113752 0.081301 0.677000 182 142 6
0.115162 0.081061 0.675000 182 142 6
0.116736 0.080940 0.674000 182 142 6
0.118304 0.080820 0.673000 182 142 6
0.120045 0.080820 0.673000 183 145 8
0.121968 0.080940 0.674000 181 143 6
0.123712 0.080940 0.674000 182 144 7
0.125642 0.081061 0.675000 182 144 5
0.127766 0.081301 0.677000 181 143 4
0.129900 0.081541 0.679000 179 141 2
0.132045 0.081781 0.681000 179 141 2
0.134593 0.082261 0.685000 173 134 3
0.137162 0.082742 0.689000 166 126 14
0.139550 0.083102 0.692000 153 118 22
0.141953 0.083462 0.695000 148 113 17
0.144165 0.083703 0.697000 116 92 40
0.146597 0.084063 0.700000 105 92 81
0.148832 0.084303 0.702000 97 90 84
0.151078 0.084543 0.704000 109 104 100
0.153334 0.084783 0.706000 116 111 107
0.155161 0.084783 0.706000 126 127 123
0.157210 0.084903 0.707000 139 139 139
0.159039 0.084903 0.707000 145 145 141
0.001706 0.086487 0.705000 161 133 46
0.003525 0.086365 0.704000 149 121 32
0.005339 0.086242 0.703000 152 124 37
0.007148 0.086119 0.702000 153 125 38
0.008951 0.085997 0.701000 151 122 40
0.010765 0.085997 0.701000 149 119 44
0.012561 0.085874 0.700000 144 117 41
0.014373 0.085874 0.700000 147 120 44
0.016184 0.085874 0.700000 142 116 44
0.018021 0.085997 0.701000 146 120 62
0.019863 0.086119 0.702000 134 109 60
0.021679 0.086119 0.702000 129 107 68
0.023529 0.086242 0.703000 120 98 59
0.025348 0.086242 0.703000 111 94 65
0.027245 0.086487 0.705000 108 97 74
0.029110 0.086610 0.706000 110 101 84
0.030937 0.086610 0.706000 121 116 98
0.032810 0.086733 0.707000 122 117 99
0.034689 0.086856 0.708000 129 128 111
0.036521 0.086856 0.708000 120 121 108
0.038353 0.086856 0.708000 101 103 87
0.040185 0.086856 0.708000 104 106 90
0.042017 0.086856 0.708000 117 111 98
0.043849 0.086856 0.708000 104 96 84
0.045681 0.086856 0.708000 109 101 89
0.104308 0.083911 0.684000 170 136 4
0.105923 0.083789 0.683000 174 138 1
0.107218 0.083421 0.680000 177 141 4
0.108817 0.083298 0.679000 179 143 4
0.110248 0.083053 0.677000 180 144 5
0.111669 0.082807 0.675000 184 145 4
0.113248 0.082684 0.674000 188 146 6
0.114821 0.082562 0.673000 188 146 6
0.116389 0.082439 0.672000 186 144 4
0.118128 0.082439 0.672000 189 147 7
0.119867 0.082439 0.672000 188 148 10
0.121606 0.082439 0.672000 185 147 8
0.123528 0.082562 0.673000 181 143 4
0.125456 0.082684 0.674000 181 143 4
0.127577 0.082930 0.676000 180 143 1
0.129709 0.083175 0.678000 176 137 4
0.132045 0.083543 0.681000 176 137 4
0.134397 0.083911 0.684000 169 130 1
0.136963 0.084402 0.688000 165 126 9
0.139550 0.084893 0.692000 153 118 22
0.141749 0.085138 0.694000 148 113 17
0.144165 0.085506 0.697000 114 88 44
0.146597 0.085874 0.700000 102 92 80
0.149044 0.086242 0.703000 95 91 84
0.151078 0.086365 0.704000 112 108 101
0.153334 0.086610 0.706000 126 122 115
0.155161 0.086610 0.706000 130 132 123
0.157210 0.086733 0.707000 130 131 127
0.159039 0.086733 0.707000 142 142 142
-0.000118 0.088061 0.703000 177 140 11
0.001698 0.087936 0.702000 177 139 13
0.003510 0.087811 0.701000 176 138 14
0.005316 0.087685 0.700000 177 139 15
0.007117 0.087560 0.699000 173 135 11
0.008913 0.087435 0.698000 173 135 11
0.010704 0.087310 0.697000 171 133 11
0.012507 0.087310 0.697000 167 132 9
0.014311 0.087310 0.697000 162 126 6
0.016114 0.087310 0.697000 162 126 6
0.017918 0.087310 0.697000 156 122 3
0.019750 0.087435 0.698000 164 129 17
0.021587 0.087560 0.699000 157 123 18
0.023429 0.087685 0.700000 148 114 9
0.025240 0.087685 0.700000 153 120 21
0.027090 0.087811 0.701000 138 108 22
0.028945 0.087936 0.702000 137 110 43
0.030806 0.088061 0.703000 131 107 51
0.032625 0.088061 0.703000 129 117 88
0.034444 0.088061 0.703000 130 119 94
0.036263 0.088061 0.703000 123 118 96
0.038082 0.088061 0.703000 106 101 81
0.039958 0.088186 0.704000 109 104 84
0.041779 0.088186 0.704000 112 103 84
0.043539 0.088061 0.703000 105 96 79
0.045358 0.088061 0.703000 111 98 85
0.047177 0.088061 0.703000 124 114 100
0.048996 0.088061 0.703000 116 106 92
0.050743 0.087936 0.702000 123 120 106
0.100621 0.085556 0.683000 170 135 10
0.102089 0.085305 0.681000 172 135 6
0.103698 0.085180 0.680000 176 140 3
0.105148 0.084930 0.678000 177 141 2
0.106745 0.084804 0.677000 177 141 2
0.108176 0.084554 0.675000 180 144 5
0.109760 0.084428 0.674000 182 144 5
0.111173 0.084178 0.672000 184 145 4
0.112912 0.084178 0.672000 189 147 5
0.114480 0.084053 0.671000 186 144 2
0.116043 0.083927 0.670000 188 149 6
0.117776 0.083927 0.670000 186 147 6
0.119510 0.083927 0.670000 188 149 8
0.121425 0.084053 0.671000 186 147 6
0.123345 0.084178 0.672000 183 144 3
0.125270 0.084303 0.673000 181 144 2
0.127388 0.084554 0.675000 182 144 5
0.129518 0.084804 0.677000 174 137 8
0.131851 0.085180 0.680000 172 135 6
0.134397 0.085681 0.684000 166 128 4
0.136963 0.086182 0.688000 164 125 6
0.139348 0.086558 0.691000 147 113 23
0.141749 0.086934 0.694000 143 109 19
0.144165 0.087310 0.697000 117 95 58
0.146597 0.087685 0.700000 120 110 96
0.149044 0.088061 0.703000 92 90 78
0.151078 0.088186 0.704000 112 110 100
0.153117 0.088312 0.705000 126 124 114
0.155161 0.088437 0.706000 129 134 122
0.157210 0.088562 0.707000 110 114 109
0.159039 0.088562 0.707000 105 105 105
-0.000118 0.089625 0.701000 177 141 4
0.001691 0.089369 0.699000 179 143 6
0.003495 0.089241 0.698000 180 143 12
0.005286 0.088985 0.696000 178 141 12
0.007076 0.088857 0.695000 178 141 12
0.008875 0.088857 0.695000 174 137 8
0.010658 0.088730 0.694000 176 137 8
0.012454 0.088730 0.694000 174 137 8
0.014229 0.088602 0.693000 169 135 5
0.016022 0.088602 0.693000 165 131 1
0.017815 0.088602 0.693000 177 142 15
0.019637 0.088730 0.694000 163 130 6
0.021463 0.088857 0.695000 161 127 8
0.023295 0.088985 0.696000 160 126 7
0.025096 0.088985 0.696000 160 125 9
0.026936 0.089113 0.697000 155 119 10
0.028739 0.089113 0.697000 150 116 24
0.030630 0.089369 0.699000 143 110 25
0.032439 0.089369 0.699000 142 109 24
0.034297 0.089497 0.700000 136 105 26
0.036108 0.089497 0.700000 139 109 32
0.037919 0.089497 0.700000 139 112 34
0.039731 0.089497 0.700000 134 109 32
0.041542 0.089497 0.700000 136 111 34
0.043353 0.089497 0.700000 134 109 44
0.045165 0.089497 0.700000 131 109 52
0.046909 0.089369 0.699000 124 105 51
0.048717 0.089369 0.699000 128 109 55
0.050526 0.089369 0.699000 117 99 49
0.052260 0.089241 0.698000 115 99 53
0.054066 0.089241 0.698000 115 98 59
0.055792 0.089113 0.697000 115 99 65
0.057596 0.089113 0.697000 123 107 73
0.059314 0.088985 0.696000 121 106 78
0.061115 0.088985 0.696000 124 109 81
0.062916 0.088985 0.696000 122 110 81
0.064717 0.088985 0.696000 107 98 63
0.066422 0.088857 0.695000 109 100 65
0.068122 0.088730 0.694000 112 103 66
0.069918 0.088730 0.694000 112 103 66
0.071611 0.088602 0.693000 111 98 58
0.073404 0.088602 0.693000 122 109 58
0.075197 0.088602 0.693000 114 107 78
0.076990 0.088602 0.693000 133 122 86
0.078783 0.088602 0.693000 122 106 60
0.080576 0.088602 0.693000 123 106 49
0.082251 0.088474 0.692000 125 107 44
0.083798 0.088218 0.690000 125 107 44
0.085460 0.088090 0.689000 133 112 41
0.087116 0.087962 0.688000 142 118 34
0.088638 0.087707 0.686000 148 123 19
0.090281 0.087579 0.685000 161 131 15
0.091785 0.087323 0.683000 158 128 12
0.093552 0.087323 0.683000 163 128 5
0.095040 0.087067 0.681000 169 129 3
0.096660 0.086940 0.680000 171 132 3
0.098275 0.086812 0.679000 174 135 6
0.099885 0.086684 0.678000 178 139 10
0.101489 0.086556 0.677000 178 139 8
0.103088 0.086428 0.676000 180 142 3
0.104528 0.086173 0.674000 182 145 3
0.106272 0.086173 0.674000 185 148 6
0.107695 0.085917 0.672000 186 149 7
0.109434 0.085917 0.672000 186 148 9
0.111007 0.085789 0.671000 186 148 9
0.112576 0.085661 0.670000 186 148 9
0.114139 0.085533 0.669000 186 148 9
0.115870 0.085533 0.669000 187 149 10
0.117601 0.085533 0.669000 185 148 6
0.119332 0.085533 0.669000 186 149 7
0.121425 0.085789 0.671000 186 149 7
0.123345 0.085917 0.672000 185 148 6
0.125270 0.086045 0.673000 182 145 3
0.127200 0.086173 0.674000 181 143 6
0.129518 0.086556 0.677000 178 138 12
0.131851 0.086940 0.680000 173 133 7
0.134397 0.087451 0.684000 162 123 6
0.136963 0.087962 0.688000 157 122 6
0.139348 0.088346 0.691000 146 114 40
0.141749 0.088730 0.694000 133 101 27
0.144165 0.089113 0.697000 107 88 59
0.146597 0.089497 0.700000 100 94 79
0.149044 0.089880 0.703000 92 93 80
0.151078 0.090008 0.704000 95 96 85
0.153117 0.090136 0.705000 104 105 94
0.155161 0.090264 0.706000 105 107 96
0.156988 0.090264 0.706000 100 104 99
-0.000117 0.090917 0.697000 186 154 9
0.001684 0.090786 0.696000 181 149 4
0.003475 0.090525 0.694000 181 146 2
0.005263 0.090395 0.693000 180 144 5
0.007046 0.090264 0.692000 180 144 5
0.008837 0.090264 0.692000 177 141 2
0.010612 0.090134 0.691000 180 142 3
0.012382 0.090004 0.690000 175 137 0
0.014167 0.090004 0.690000 174 134 0
0.015953 0.090004 0.690000 177 137 1
0.017738 0.090004 0.690000 174 136 0
0.019552 0.090134 0.691000 172 133 0
0.021340 0.090134 0.691000 172 133 0
0.023161 0.090264 0.692000 173 132 0
0.024988 0.090395 0.693000 170 129 0
0.026781 0.090395 0.693000 168 129 0
0.028615 0.090525 0.694000 168 128 6
0.030455 0.090656 0.695000 165 126 9
0.032253 0.090656 0.695000 159 120 3
0.034052 0.090656 0.695000 161 125 7
0.035850 0.090656 0.695000 158 122 4
0.037703 0.090786 0.696000 156 119 4
0.039504 0.090786 0.696000 155 118 3
0.041305 0.090786 0.696000 158 121 6
0.043105 0.090786 0.696000 149 116 19
0.044842 0.090656 0.695000 145 115 27
0.046640 0.090656 0.695000 140 112 27
0.048369 0.090525 0.694000 146 120 37
0.050165 0.090525 0.694000 139 113 30
0.051960 0.090525 0.694000 130 107 28
0.053679 0.090395 0.693000 126 105 32
0.055472 0.090395 0.693000 128 106 38
0.057265 0.090395 0.693000 130 108 40
0.059058 0.090395 0.693000 131 108 47
0.060764 0.090264 0.692000 131 110 50
0.062554 0.090264 0.692000 130 109 49
0.064345 0.090264 0.692000 131 108 47
0.066040 0.090134 0.691000 124 101 40
0.067730 0.090004 0.690000 132 110 44
0.069515 0.090004 0.690000 130 110 43
0.071197 0.089873 0.689000 127 107 38
0.072980 0.089873 0.689000 137 117 41
0.074763 0.089873 0.689000 133 113 37
0.076546 0.089873 0.689000 137 118 35
0.078329 0.089873 0.689000 139 118 29
0.079995 0.089743 0.688000 144 118 17
0.081656 0.089612 0.687000 150 120 14
0.083313 0.089482 0.686000 150 120 14
0.084964 0.089351 0.685000 152 119 11
0.086483 0.089090 0.683000 156 120 13
0.088121 0.088960 0.682000 160 125 13
0.089622 0.088699 0.680000 165 129 9
0.091247 0.088569 0.679000 167 131 11
0.092867 0.088438 0.678000 174 134 10
0.094482 0.088308 0.677000 175 133 8
0.096092 0.088177 0.676000 176 135 7
0.097696 0.088047 0.675000 177 136 4
0.099295 0.087917 0.674000 179 138 6
0.101039 0.087917 0.674000 183 140 5
0.102631 0.087786 0.673000 184 141 4
0.104217 0.087656 0.672000 188 145 8
0.105956 0.087656 0.672000 190 148 8
0.107535 0.087525 0.671000 190 148 8
0.109108 0.087395 0.670000 191 148 13
0.110676 0.087264 0.669000 188 148 12
0.112407 0.087264 0.669000 187 147 11
0.114139 0.087264 0.669000 188 150 11
0.115870 0.087264 0.669000 186 148 9
0.117601 0.087264 0.669000 186 148 9
0.119332 0.087264 0.669000 185 147 8
0.121244 0.087395 0.670000 188 150 11
0.123161 0.087525 0.671000 185 147 8
0.125083 0.087656 0.672000 181 143 4
0.127200 0.087917 0.674000 180 141 8
0.129518 0.088308 0.677000 175 135 9
0.131851 0.088699 0.680000 172 132 6
0.134397 0.089221 0.684000 162 123 6
0.136764 0.089612 0.687000 152 119 9
0.139146 0.090004 0.690000 144 112 47
0.141749 0.090525 0.694000 109 87 63
0.144165 0.090917 0.697000 106 84 60
0.146597 0.091308 0.700000 96 90 75
0.148832 0.091569 0.702000 91 93 77
0.150863 0.091699 0.703000 97 98 85
0.153117 0.091960 0.705000 103 104 91
0.154941 0.091960 0.705000 101 106 94
-0.000117 0.092321 0.694000 185 152 12
0.001677 0.092188 0.693000 184 151 11
0.003460 0.091922 0.691000 183 150 10
0.005240 0.091789 0.690000 182 148 14
0.007015 0.091656 0.689000 179 145 11
0.008798 0.091656 0.689000 179 143 6
0.010566 0.091523 0.688000 180 141 8
0.012328 0.091390 0.687000 176 137 4
0.014085 0.091257 0.686000 175 134 2
0.015860 0.091257 0.686000 177 136 4
0.017635 0.091257 0.686000 177 137 1
0.019439 0.091390 0.687000 174 134 0
0.021216 0.091390 0.687000 174 134 0
0.023027 0.091523 0.688000 176 132 1
0.024844 0.091656 0.689000 175 131 0
0.026626 0.091656 0.689000 175 134 2
0.028451 0.091789 0.690000 172 133 4
0.030236 0.091789 0.690000 169 129 5
0.032068 0.091922 0.691000 165 125 1
0.033856 0.091922 0.691000 166 126 2
0.035695 0.092055 0.692000 164 124 0
0.037486 0.092055 0.692000 164 124 0
0.039277 0.092055 0.692000 161 121 0
0.041008 0.091922 0.691000 165 125 1
0.042796 0.091922 0.691000 160 122 0
0.044584 0.091922 0.691000 160 122 0
0.046305 0.091789 0.690000 157 121 3
0.048090 0.091789 0.690000 159 124 12
0.049876 0.091789 0.690000 157 122 10
0.051661 0.091789 0.690000 155 122 12
0.053369 0.091656 0.689000 155 122 12
0.055152 0.091656 0.689000 152 119 9
0.056935 0.091656 0.689000 153 122 13
0.058717 0.091656 0.689000 152 121 12
0.060412 0.091523 0.688000 153 121 17
0.062193 0.091523 0.688000 152 118 13
0.063973 0.091523 0.688000 150 118 14
0.065658 0.091390 0.687000 147 117 13
0.067337 0.091257 0.686000 149 119 15
0.069112 0.091257 0.686000 146 119 16
0.070887 0.091257 0.686000 148 121 18
0.072556 0.091124 0.685000 147 120 17
0.074329 0.091124 0.685000 147 120 17
0.076101 0.091124 0.685000 149 123 13
0.077874 0.091124 0.685000 152 126 14
0.079414 0.090858 0.683000 159 127 14
0.081181 0.090858 0.683000 163 126 11
0.082827 0.090725 0.682000 161 124 9
0.084344 0.090459 0.680000 160 120 6
0.085976 0.090326 0.679000 164 124 12
0.087475 0.090060 0.677000 165 125 11
0.089095 0.089927 0.676000 172 131 12
0.090710 0.089794 0.675000 172 131 12
0.092319 0.089661 0.674000 176 134 11
0.094063 0.089661 0.674000 179 137 14
0.095665 0.089528 0.673000 179 138 10
0.097262 0.089394 0.672000 180 140 4
0.099001 0.089394 0.672000 181 141 5
0.100740 0.089394 0.672000 185 142 5
0.102326 0.089261 0.671000 186 143 6
0.104062 0.089261 0.671000 188 146 6
0.105641 0.089128 0.670000 189 147 7
0.107375 0.089128 0.670000 190 148 8
0.108945 0.088995 0.669000 190 147 10
0.110676 0.088995 0.669000 189 146 9
0.112407 0.088995 0.669000 187 147 11
0.113968 0.088862 0.668000 187 147 11
0.115870 0.088995 0.669000 189 149 13
0.117601 0.088995 0.669000 187 149 12
0.119332 0.088995 0.669000 186 148 11
0.121244 0.089128 0.670000 186 147 14
0.123161 0.089261 0.671000 183 144 11
0.125083 0.089394 0.672000 180 142 5
0.127200 0.089661 0.674000 179 141 4
0.129518 0.090060 0.677000 175 136 5
0.131851 0.090459 0.680000 166 128 6
0.134200 0.090858 0.683000 162 124 2
0.136764 0.091390 0.687000 147 111 18
0.139146 0.091789 0.690000 135 104 63
0.141545 0.092188 0.693000 106 92 75
0.143958 0.092587 0.696000 127 113 96
0.146597 0.093119 0.700000 119 116 100
0.148832 0.093385 0.702000 120 117 103
0.150863 0.093518 0.703000 99 95 86
0.152900 0.093651 0.704000 100 96 87
0.154721 0.093651 0.704000 111 112 103
-0.000116 0.093846 0.692000 184 151 13
0.001669 0.093574 0.690000 183 149 15
0.003450 0.093439 0.689000 182 148 16
0.005225 0.093303 0.688000 184 147 16
0.006995 0.093168 0.687000 180 142 16
0.008760 0.093032 0.686000 181 143 17
0.010520 0.092896 0.685000 179 142 13
0.012310 0.093032 0.686000 177 140 9
0.014044 0.092761 0.684000 175 134 2
0.015791 0.092625 0.683000 178 134 3
0.017584 0.092761 0.684000 178 134 3
0.019354 0.092761 0.684000 177 133 2
0.021124 0.092761 0.684000 179 136 1
0.022927 0.092896 0.685000 176 133 0
0.024699 0.092896 0.685000 177 134 0
0.026511 0.093032 0.686000 178 135 0
0.028286 0.093032 0.686000 179 136 0
0.030061 0.093032 0.686000 177 134 0
0.031836 0.093032 0.686000 178 135 0
0.033611 0.093032 0.686000 177 134 0
0.035386 0.093032 0.686000 174 130 0
0.037215 0.093168 0.687000 175 131 0
0.038993 0.093168 0.687000 175 131 0
0.040770 0.093168 0.687000 175 131 0
0.042548 0.093168 0.687000 172 131 0
0.044261 0.093032 0.686000 170 129 0
0.046036 0.093032 0.686000 169 128 0
0.047811 0.093032 0.686000 170 128 5
0.049586 0.093032 0.686000 170 128 5
0.051361 0.093032 0.686000 169 128 11
0.053137 0.093032 0.686000 161 124 11
0.054832 0.092896 0.685000 154 117 2
0.056604 0.092896 0.685000 160 123 8
0.058377 0.092896 0.685000 160 123 8
0.060061 0.092761 0.684000 159 124 8
0.061831 0.092761 0.684000 157 122 8
0.063601 0.092761 0.684000 156 121 7
0.065275 0.092625 0.683000 151 119 6
0.067043 0.092625 0.683000 154 122 9
0.068810 0.092625 0.683000 153 122 11
0.070474 0.092489 0.682000 153 122 13
0.072133 0.092354 0.681000 150 121 12
0.073895 0.092354 0.681000 152 123 12
0.075657 0.092354 0.681000 152 123 12
0.077305 0.092218 0.680000 160 130 16
0.079065 0.092218 0.680000 159 127 10
0.080706 0.092083 0.679000 163 124 5
0.082220 0.091811 0.677000 163 124 5
0.083971 0.091811 0.677000 171 130 11
0.085470 0.091540 0.675000 171 130 11
0.087087 0.091405 0.674000 175 133 12
0.088700 0.091269 0.673000 177 132 8
0.090307 0.091133 0.672000 178 133 9
0.091908 0.090998 0.671000 177 136 6
0.093645 0.090998 0.671000 183 142 14
0.095239 0.090862 0.670000 182 141 11
0.096973 0.090862 0.670000 186 146 10
0.098706 0.090862 0.670000 184 144 8
0.100440 0.090862 0.670000 187 147 9
0.102021 0.090726 0.669000 188 148 10
0.103752 0.090726 0.669000 188 149 8
0.105483 0.090726 0.669000 189 152 10
0.107214 0.090726 0.669000 190 153 11
0.108945 0.090726 0.669000 188 151 9
0.110676 0.090726 0.669000 188 151 9
0.112239 0.090591 0.668000 189 150 9
0.113968 0.090591 0.668000 188 150 11
0.115696 0.090591 0.668000 186 148 9
0.117425 0.090591 0.668000 187 149 10
0.119332 0.090726 0.669000 184 147 14
0.121063 0.090726 0.669000 182 143 12
0.123161 0.090998 0.671000 180 141 10
0.125083 0.091133 0.672000 178 140 3
0.127200 0.091405 0.674000 174 135 2
0.129518 0.091811 0.677000 173 132 4
0.131851 0.092218 0.680000 166 124 10
0.134200 0.092625 0.683000 164 122 8
0.136565 0.093032 0.686000 151 114 32
0.138945 0.093439 0.689000 122 97 61
0.141545 0.093981 0.693000 105 96 79
0.143958 0.094388 0.696000 128 119 102
0.146387 0.094795 0.699000 123 120 106
0.148620 0.095066 0.701000 125 121 112
0.150863 0.095337 0.703000 105 101 92
0.152682 0.095337 0.703000 121 117 108
0.154501 0.095337 0.703000 120 116 109
-0.000116 0.095222 0.689000 192 164 34
0.001667 0.095222 0.689000 173 144 21
0.003440 0.094945 0.687000 175 139 19
0.005210 0.094807 0.686000 181 143 19
0.006985 0.094807 0.686000 181 143 19
0.008747 0.094669 0.685000 180 142 18
0.010504 0.094531 0.684000 178 140 14
0.012256 0.094392 0.683000 177 140 11
0.014023 0.094392 0.683000 174 137 6
0.015768 0.094254 0.682000 178 139 6
0.017532 0.094254 0.682000 176 137 4
0.019297 0.094254 0.682000 177 136 4
0.021031 0.094116 0.681000 179 139 1
0.022793 0.094116 0.681000 179 136 0
0.024591 0.094254 0.682000 181 138 1
0.026356 0.094254 0.682000 182 140 0
0.028121 0.094254 0.682000 179 137 0
0.029885 0.094254 0.682000 181 139 0
0.031650 0.094254 0.682000 178 136 0
0.033415 0.094254 0.682000 178 136 0
0.035180 0.094254 0.682000 177 134 0
0.036998 0.094392 0.683000 177 134 0
0.038766 0.094392 0.683000 176 133 0
0.040533 0.094392 0.683000 177 134 0
0.042300 0.094392 0.683000 178 135 0
0.044003 0.094254 0.682000 174 134 0
0.045768 0.094254 0.682000 172 132 0
0.047533 0.094254 0.682000 173 132 4
0.049297 0.094254 0.682000 173 132 4
0.051062 0.094254 0.682000 173 131 8
0.052749 0.094116 0.681000 172 130 7
0.054511 0.094116 0.681000 173 131 6
0.056274 0.094116 0.681000 170 129 1
0.058036 0.094116 0.681000 170 129 1
0.059710 0.093978 0.680000 171 132 3
0.061470 0.093978 0.680000 169 130 1
0.063229 0.093978 0.680000 165 127 1
0.064989 0.093978 0.680000 164 126 0
0.066748 0.093978 0.680000 166 128 2
0.068508 0.093978 0.680000 162 127 0
0.070061 0.093701 0.678000 162 127 4
0.071815 0.093701 0.678000 164 129 6
0.073461 0.093563 0.677000 164 128 8
0.075213 0.093563 0.677000 165 129 9
0.076964 0.093563 0.677000 170 132 10
0.078600 0.093425 0.676000 166 128 4
0.080111 0.093149 0.674000 169 131 5
0.081855 0.093149 0.674000 173 133 7
0.083475 0.093010 0.673000 173 133 7
0.085090 0.092872 0.672000 176 136 10
0.086700 0.092734 0.671000 176 135 5
0.088304 0.092596 0.670000 180 140 4
0.089903 0.092458 0.669000 181 143 4
0.091635 0.092458 0.669000 181 143 4
0.093366 0.092458 0.669000 183 144 11
0.095097 0.092458 0.669000 181 142 9
0.096828 0.092458 0.669000 186 148 11
0.098559 0.092458 0.669000 187 149 12
0.100290 0.092458 0.669000 188 149 16
0.102021 0.092458 0.669000 189 150 17
0.103752 0.092458 0.669000 187 149 12
0.105483 0.092458 0.669000 188 150 13
0.107214 0.092458 0.669000 188 150 13
0.108945 0.092458 0.669000 189 151 14
0.110676 0.092458 0.669000 189 151 12
0.112239 0.092319 0.668000 185 147 8
0.113797 0.092181 0.667000 188 151 9
0.115696 0.092319 0.668000 186 149 7
0.117425 0.092319 0.668000 184 149 7
0.119332 0.092458 0.669000 181 145 8
0.121063 0.092458 0.669000 179 140 9
0.123161 0.092734 0.671000 179 140 9
0.125083 0.092872 0.672000 176 137 6
0.127200 0.093149 0.674000 172 130 5
0.129518 0.093563 0.677000 168 128 2
0.131851 0.093978 0.680000 165 123 25
0.134200 0.094392 0.683000 159 117 19
0.136764 0.094945 0.687000 128 96 35
0.138945 0.095222 0.689000 110 93 66
0.141545 0.095774 0.693000 117 116 99
0.143958 0.096189 0.696000 120 119 102
0.146178 0.096465 0.698000 127 126 109
0.148408 0.096742 0.700000 128 126 114
0.150649 0.097018 0.702000 125 123 111
0.152682 0.097156 0.703000 117 115 103
-0.000116 0.096723 0.687000 208 180 64
0.001660 0.096582 0.686000 213 183 79
0.003435 0.096582 0.686000 195 165 59
0.005202 0.096441 0.685000 179 143 25
0.006964 0.096300 0.684000 179 141 17
0.008722 0.096160 0.683000 181 143 19
0.010489 0.096160 0.683000 179 141 15
0.012238 0.096019 0.682000 180 143 14
0.013982 0.095878 0.681000 177 140 11
0.015721 0.095737 0.680000 177 136 6
0.017481 0.095737 0.680000 176 135 5
0.019241 0.095737 0.680000 182 138 7
0.021000 0.095737 0.680000 183 140 5
0.022726 0.095597 0.679000 183 140 5
0.024483 0.095597 0.679000 188 145 8
0.026240 0.095597 0.679000 183 140 3
0.027997 0.095597 0.679000 181 139 0
0.029754 0.095597 0.679000 183 141 1
0.031464 0.095456 0.678000 183 141 1
0.033219 0.095456 0.678000 184 142 2
0.034922 0.095315 0.677000 182 140 0
0.036728 0.095456 0.678000 179 137 0
0.038482 0.095456 0.678000 182 140 0
0.040236 0.095456 0.678000 180 136 0
0.041929 0.095315 0.677000 185 141 2
0.043681 0.095315 0.677000 182 138 0
0.045432 0.095315 0.677000 182 138 0
0.047184 0.095315 0.677000 182 137 3
0.048936 0.095315 0.677000 179 135 6
0.050688 0.095315 0.677000 178 134 5
0.052439 0.095315 0.677000 177 133 2
0.054191 0.095315 0.677000 178 134 3
0.055943 0.095315 0.677000 178 134 3
0.057695 0.095315 0.677000 178 134 3
0.059447 0.095315 0.677000 177 133 2
0.061198 0.095315 0.677000 176 132 1
0.062950 0.095315 0.677000 173 132 2
0.064702 0.095315 0.677000 175 134 6
0.066355 0.095174 0.676000 170 129 1
0.068105 0.095174 0.676000 168 129 0
0.069751 0.095033 0.675000 165 127 1
0.071391 0.094893 0.674000 169 131 5
0.073135 0.094893 0.674000 167 129 3
0.074879 0.094893 0.674000 171 133 7
0.076510 0.094752 0.673000 171 131 5
0.078135 0.094611 0.672000 169 130 1
0.079874 0.094611 0.672000 172 133 2
0.081491 0.094470 0.671000 175 136 5
0.083103 0.094329 0.670000 175 136 5
0.084837 0.094329 0.670000 179 140 9
0.086441 0.094189 0.669000 176 137 4
0.088172 0.094189 0.669000 181 141 5
0.089769 0.094048 0.668000 183 143 7
0.091361 0.093907 0.667000 181 141 5
0.093226 0.094048 0.668000 182 144 7
0.094955 0.094048 0.668000 185 147 8
0.096683 0.094048 0.668000 186 148 9
0.098412 0.094048 0.668000 187 149 10
0.100290 0.094189 0.669000 189 151 14
0.102021 0.094189 0.669000 192 154 17
0.103752 0.094189 0.669000 190 152 15
0.105326 0.094048 0.668000 187 148 15
0.107054 0.094048 0.668000 189 150 17
0.108782 0.094048 0.668000 187 150 17
0.110511 0.094048 0.668000 187 151 14
0.112071 0.093907 0.667000 186 148 11
0.113797 0.093907 0.667000 185 146 15
0.115350 0.093766 0.666000 182 143 12
0.117249 0.093907 0.667000 183 144 13
0.119332 0.094189 0.669000 182 143 10
0.121063 0.094189 0.669000 178 139 8
0.123161 0.094470 0.671000 178 139 8
0.125083 0.094611 0.672000 169 129 5
0.127200 0.094893 0.674000 169 129 7
0.129518 0.095315 0.677000 167 125 11
0.131851 0.095737 0.680000 157 117 32
0.134397 0.096300 0.684000 145 105 20
0.136764 0.096723 0.687000 113 87 45
0.138945 0.097004 0.689000 100 91 70
0.141545 0.097568 0.693000 112 114 98
0.143751 0.097849 0.695000 122 124 108
0.146178 0.098272 0.698000 129 128 113
0.148408 0.098553 0.700000 134 131 115
0.150649 0.098835 0.702000 134 131 117
0.152682 0.098975 0.703000 127 124 110
0.001657 0.098214 0.685000 204 177 74
0.003425 0.098070 0.684000 193 170 70
0.005195 0.098070 0.684000 191 165 66
0.006954 0.097927 0.683000 186 155 56
0.008722 0.097927 0.683000 190 159 60
0.010474 0.097784 0.682000 178 143 27
0.012220 0.097640 0.681000 183 150 22
0.013962 0.097497 0.680000 182 148 18
0.015721 0.097497 0.680000 181 142 11
0.017455 0.097353 0.679000 178 139 8
0.019184 0.097210 0.678000 180 139 9
0.020907 0.097067 0.677000 183 139 10
0.022659 0.097067 0.677000 183 139 8
0.024411 0.097067 0.677000 188 144 13
0.026163 0.097067 0.677000 186 142 11
0.027873 0.096923 0.676000 184 141 4
0.029579 0.096780 0.675000 185 143 3
0.031325 0.096780 0.675000 184 142 2
0.033023 0.096637 0.674000 183 141 1
0.034767 0.096637 0.674000 183 141 1
0.036511 0.096637 0.674000 181 139 0
0.038255 0.096637 0.674000 184 140 0
0.039999 0.096637 0.674000 182 138 0
0.041743 0.096637 0.674000 185 141 0
0.043487 0.096637 0.674000 186 139 0
0.045231 0.096637 0.674000 184 137 0
0.046975 0.096637 0.674000 185 140 6
0.048719 0.096637 0.674000 180 135 1
0.050463 0.096637 0.674000 180 135 1
0.052207 0.096637 0.674000 180 135 1
0.053951 0.096637 0.674000 182 137 3
0.055695 0.096637 0.674000 181 138 3
0.057439 0.096637 0.674000 179 136 1
0.059183 0.096637 0.674000 179 136 1
0.060927 0.096637 0.674000 178 135 0
0.062671 0.096637 0.674000 179 134 0
0.064415 0.096637 0.674000 175 130 0
0.066159 0.096637 0.674000 175 130 0
0.067903 0.096637 0.674000 175 131 0
0.069544 0.096493 0.673000 173 132 2
0.071179 0.096350 0.672000 175 134 4
0.072918 0.096350 0.672000 173 132 2
0.074657 0.096350 0.672000 175 134 4
0.076282 0.096206 0.671000 175 134 4
0.077902 0.096063 0.670000 176 135 3
0.079517 0.095920 0.669000 179 136 1
0.081248 0.095920 0.669000 179 139 3
0.082979 0.095920 0.669000 180 140 4
0.084584 0.095776 0.668000 181 141 3
0.086183 0.095633 0.667000 182 142 6
0.087909 0.095633 0.667000 183 143 7
0.089500 0.095490 0.666000 184 144 8
0.091224 0.095490 0.666000 186 146 10
0.092947 0.095490 0.666000 184 144 8
0.094670 0.095490 0.666000 183 145 6
0.096394 0.095490 0.666000 188 150 11
0.098264 0.095633 0.667000 192 154 15
0.099990 0.095633 0.667000 189 151 12
0.101869 0.095776 0.668000 192 154 17
0.103597 0.095776 0.668000 190 151 18
0.105168 0.095633 0.667000 187 148 15
0.106894 0.095633 0.667000 190 151 18
0.108620 0.095633 0.667000 186 150 13
0.110346 0.095633 0.667000 186 150 13
0.112071 0.095633 0.667000 184 148 11
0.113797 0.095633 0.667000 182 143 14
0.115350 0.095490 0.666000 181 142 13
0.117425 0.095776 0.668000 183 144 15
0.119332 0.095920 0.669000 180 141 10
0.121244 0.096063 0.670000 178 138 12
0.123345 0.096350 0.672000 174 134 8
0.125270 0.096493 0.673000 169 128 9
0.127388 0.096780 0.675000 168 127 10
0.129709 0.097210 0.678000 163 122 15
0.132045 0.097640 0.681000 150 113 40
0.134397 0.098070 0.684000 142 105 32
0.136764 0.098501 0.687000 108 90 58
0.138945 0.098787 0.689000 99 93 78
0.141545 0.099361 0.693000 122 123 112
0.143751 0.099648 0.695000 126 127 116
0.145969 0.099934 0.697000 139 135 124
0.148408 0.100364 0.700000 139 136 120
0.150434 0.100508 0.701000 136 135 120
0.001652 0.099694 0.683000 181 155 43
0.003420 0.099694 0.683000 202 176 64
0.005187 0.099694 0.683000 205 178 73
0.006954 0.099694 0.683000 205 177 79
0.008709 0.099548 0.682000 197 169 71
0.010458 0.099402 0.681000 187 155 42
0.012202 0.099256 0.680000 182 149 21
0.013962 0.099256 0.680000 188 151 22
0.015698 0.099110 0.679000 185 146 15
0.017430 0.098964 0.678000 187 148 17
0.019156 0.098819 0.677000 179 140 9
0.020907 0.098819 0.677000 182 141 11
0.022626 0.098673 0.676000 182 141 11
0.024339 0.098527 0.675000 186 142 13
0.026047 0.098381 0.674000 185 141 12
0.027791 0.098381 0.674000 185 142 7
0.029535 0.098381 0.674000 185 143 3
0.031279 0.098381 0.674000 185 143 3
0.032925 0.098089 0.672000 184 145 4
0.034664 0.098089 0.672000 186 147 6
0.036403 0.098089 0.672000 184 145 4
0.038141 0.098089 0.672000 186 144 4
0.039880 0.098089 0.672000 188 146 6
0.041619 0.098089 0.672000 185 143 3
0.043358 0.098089 0.672000 185 141 2
0.045097 0.098089 0.672000 184 140 1
0.046836 0.098089 0.672000 186 142 3
0.048574 0.098089 0.672000 182 138 0
0.050313 0.098089 0.672000 184 140 1
0.052052 0.098089 0.672000 185 143 3
0.053791 0.098089 0.672000 184 142 2
0.055530 0.098089 0.672000 182 140 0
0.057269 0.098089 0.672000 182 140 0
0.059007 0.098089 0.672000 183 141 1
0.060746 0.098089 0.672000 185 141 2
0.062485 0.098089 0.672000 180 136 0
0.064224 0.098089 0.672000 182 138 0
0.065963 0.098089 0.672000 180 136 0
0.067702 0.098089 0.672000 182 138 0
0.069337 0.097943 0.671000 178 135 0
0.071073 0.097943 0.671000 176 136 0
0.072810 0.097943 0.671000 175 134 2
0.074435 0.097797 0.670000 176 135 3
0.076055 0.097651 0.669000 177 136 4
0.077786 0.097651 0.669000 177 136 4
0.079517 0.097651 0.669000 181 138 3
0.081127 0.097505 0.668000 182 139 2
0.082731 0.097359 0.667000 182 139 2
0.084330 0.097213 0.666000 183 143 5
0.086054 0.097213 0.666000 184 143 11
0.087777 0.097213 0.666000 183 142 10
0.089500 0.097213 0.666000 184 144 8
0.091087 0.097067 0.665000 186 146 10
0.092947 0.097213 0.666000 184 144 8
0.094670 0.097213 0.666000 186 146 10
0.096394 0.097213 0.666000 187 147 9
0.098117 0.097213 0.666000 190 151 10
0.099840 0.097213 0.666000 190 151 10
0.101716 0.097359 0.667000 192 154 17
0.103442 0.097359 0.667000 193 154 21
0.105010 0.097213 0.666000 189 151 14
0.106733 0.097213 0.666000 186 148 11
0.108620 0.097359 0.667000 186 149 5
0.110346 0.097359 0.667000 183 146 2
0.112071 0.097359 0.667000 180 144 5
0.113797 0.097359 0.667000 181 142 9
0.115523 0.097359 0.667000 179 140 7
0.117425 0.097505 0.668000 182 143 12
0.119332 0.097651 0.669000 178 141 12
0.121425 0.097943 0.671000 171 133 11
0.123345 0.098089 0.672000 167 129 7
0.125456 0.098381 0.674000 167 126 7
0.127577 0.098673 0.676000 162 122 12
0.129709 0.098964 0.678000 149 113 35
0.132045 0.099402 0.681000 127 101 61
0.134593 0.099986 0.685000 124 98 58
0.136963 0.100424 0.688000 103 96 75
0.138945 0.100570 0.689000 100 98 88
0.141340 0.101008 0.692000 118 118 112
0.143545 0.101300 0.694000 132 132 126
0.145759 0.101592 0.696000 138 136 126
0.148196 0.102030 0.699000 142 138 129
0.003420 0.101462 0.683000 168 140 22
0.005187 0.101462 0.683000 168 138 13
0.006944 0.101313 0.682000 192 156 47
0.008696 0.101165 0.681000 184 148 39
0.010443 0.101016 0.680000 213 182 73
0.012202 0.101016 0.680000 188 157 37
0.013921 0.100719 0.678000 190 155 28
0.015652 0.100570 0.677000 198 161 32
0.017404 0.100570 0.677000 190 153 24
0.019127 0.100422 0.676000 191 154 25
0.020846 0.100273 0.675000 186 148 24
0.022559 0.100125 0.674000 186 146 22
0.024303 0.100125 0.674000 187 147 25
0.026008 0.099976 0.673000 195 155 33
0.027750 0.099976 0.673000 185 145 21
0.029447 0.099828 0.672000 189 147 24
0.031186 0.099828 0.672000 187 146 18
0.032876 0.099679 0.671000 186 145 15
0.034612 0.099679 0.671000 186 145 15
0.036348 0.099679 0.671000 187 146 14
0.038028 0.099530 0.670000 187 147 11
0.039762 0.099530 0.670000 188 145 10
0.041495 0.099530 0.670000 185 140 4
0.043164 0.099382 0.669000 187 142 6
0.044895 0.099382 0.669000 185 141 2
0.046627 0.099382 0.669000 186 142 3
0.048358 0.099382 0.669000 183 139 0
0.050089 0.099382 0.669000 186 142 3
0.051820 0.099382 0.669000 185 142 5
0.053551 0.099382 0.669000 182 140 0
0.055365 0.099530 0.670000 183 141 1
0.057098 0.099530 0.670000 184 140 1
0.058832 0.099530 0.670000 185 141 2
0.060656 0.099679 0.671000 184 140 1
0.062392 0.099679 0.671000 182 138 0
0.064128 0.099679 0.671000 183 139 0
0.065865 0.099679 0.671000 182 140 0
0.067601 0.099679 0.671000 184 142 2
0.069234 0.099530 0.670000 183 140 3
0.070862 0.099382 0.669000 180 140 4
0.072593 0.099382 0.669000 181 140 8
0.074324 0.099382 0.669000 182 141 9
0.076055 0.099382 0.669000 183 142 14
0.077670 0.099233 0.668000 182 143 14
0.079279 0.099085 0.667000 182 143 12
0.080884 0.098936 0.666000 181 142 9
0.082607 0.098936 0.666000 181 142 9
0.084204 0.098788 0.665000 186 145 13
0.085924 0.098788 0.665000 187 146 14
0.087513 0.098639 0.664000 186 145 13
0.089232 0.098639 0.664000 187 146 14
0.090950 0.098639 0.664000 191 150 18
0.092668 0.098639 0.664000 187 147 11
0.094528 0.098788 0.665000 186 149 7
0.096249 0.098788 0.665000 186 149 7
0.098117 0.098936 0.666000 189 152 10
0.099840 0.098936 0.666000 188 151 9
0.101564 0.098936 0.666000 188 150 11
0.103287 0.098936 0.666000 188 149 16
0.105010 0.098936 0.666000 186 148 11
0.106733 0.098936 0.666000 183 145 8
0.108457 0.098936 0.666000 183 145 6
0.110346 0.099085 0.667000 182 145 3
0.112071 0.099085 0.667000 182 144 5
0.113968 0.099233 0.668000 181 142 9
0.115696 0.099233 0.668000 179 140 7
0.117601 0.099382 0.669000 180 141 10
0.119332 0.099382 0.669000 180 140 14
0.121606 0.099828 0.672000 167 128 9
0.123528 0.099976 0.673000 166 127 8
0.125642 0.100273 0.675000 163 124 7
0.127766 0.100570 0.677000 154 115 12
0.129900 0.100867 0.679000 140 108 47
0.132433 0.101462 0.683000 122 100 74
0.134790 0.101907 0.686000 122 100 74
0.136963 0.102204 0.688000 108 100 86
0.139146 0.102501 0.690000 105 101 92
0.141340 0.102799 0.692000 104 104 98
0.143545 0.103096 0.694000 120 120 114
0.145759 0.103393 0.696000 133 134 125
0.147984 0.103690 0.698000 144 140 133
0.006934 0.102927 0.681000 172 144 18
0.008683 0.102775 0.680000 172 144 18
0.010443 0.102775 0.680000 193 156 41
0.012166 0.102473 0.678000 184 147 32
0.013900 0.102322 0.677000 191 153 29
0.015629 0.102171 0.676000 195 158 29
0.017378 0.102171 0.676000 191 154 25
0.019071 0.101869 0.674000 193 156 27
0.020815 0.101869 0.674000 191 153 27
0.022525 0.101718 0.673000 192 154 28
0.024231 0.101566 0.672000 192 154 32
0.025970 0.101566 0.672000 194 156 34
0.027708 0.101566 0.672000 187 148 29
0.029403 0.101415 0.671000 190 151 32
0.031140 0.101415 0.671000 189 149 27
0.032827 0.101264 0.670000 187 147 21
0.034509 0.101113 0.669000 187 147 21
0.036240 0.101113 0.669000 187 148 15
0.037971 0.101113 0.669000 189 148 16
0.039702 0.101113 0.669000 189 148 16
0.041433 0.101113 0.669000 184 143 11
0.043164 0.101113 0.669000 186 145 13
0.044828 0.100962 0.668000 187 147 11
0.046557 0.100962 0.668000 187 147 11
0.048285 0.100962 0.668000 191 150 18
0.050014 0.100962 0.668000 186 145 13
0.051742 0.100962 0.668000 187 146 16
0.053471 0.100962 0.668000 189 148 16
0.055282 0.101113 0.669000 191 151 15
0.057013 0.101113 0.669000 188 147 19
0.058744 0.101113 0.669000 187 146 18
0.060475 0.101113 0.669000 187 145 20
0.062206 0.101113 0.669000 187 145 22
0.063937 0.101113 0.669000 186 144 19
0.065668 0.101113 0.669000 176 135 3
0.067399 0.101113 0.669000 188 147 15
0.069131 0.101113 0.669000 194 154 18
0.070862 0.101113 0.669000 212 173 54
0.072593 0.101113 0.669000 188 154 35
0.074213 0.100962 0.668000 189 153 35
0.075827 0.100811 0.667000 192 156 38
0.077437 0.100660 0.666000 190 154 36
0.079160 0.100660 0.666000 189 154 31
0.080762 0.100508 0.665000 183 148 21
0.082483 0.100508 0.665000 181 144 13
0.084077 0.100357 0.664000 185 146 15
0.085795 0.100357 0.664000 187 148 17
0.087513 0.100357 0.664000 188 149 18
0.089232 0.100357 0.664000 187 148 15
0.090950 0.100357 0.664000 190 151 18
0.092668 0.100357 0.664000 189 151 14
0.094386 0.100357 0.664000 187 150 8
0.096104 0.100357 0.664000 185 148 4
0.097970 0.100508 0.665000 189 152 10
0.099690 0.100508 0.665000 188 151 9
0.101564 0.100660 0.666000 186 148 9
0.103287 0.100660 0.666000 183 144 11
0.105010 0.100660 0.666000 185 146 13
0.106733 0.100660 0.666000 183 144 11
0.108457 0.100660 0.666000 183 145 8
0.110346 0.100811 0.667000 180 142 5
0.112071 0.100811 0.667000 181 143 6
0.113968 0.100962 0.668000 178 139 6
0.115696 0.100962 0.668000 176 137 4
0.117601 0.101113 0.669000 174 134 8
0.119510 0.101264 0.670000 166 127 8
0.121606 0.101566 0.672000 161 124 9
0.123712 0.101869 0.674000 163 126 11
0.126014 0.102322 0.677000 153 116 14
0.127955 0.102473 0.678000 142 105 34
0.130283 0.102927 0.681000 123 98 64
0.132433 0.103229 0.683000 116 102 85
0.134790 0.103682 0.686000 115 101 84
0.137162 0.104136 0.689000 110 101 92
0.139348 0.104438 0.691000 104 97 91
0.141545 0.104740 0.693000 99 100 91
0.143545 0.104891 0.694000 99 100 91
0.008683 0.104535 0.680000 170 142 16
0.010427 0.104381 0.679000 175 141 20
0.012149 0.104074 0.677000 181 145 27
0.013900 0.104074 0.677000 183 145 21
0.015629 0.103920 0.676000 190 151 22
0.017327 0.103613 0.674000 189 150 21
0.019042 0.103459 0.673000 197 158 29
0.020753 0.103305 0.672000 189 149 23
0.022492 0.103305 0.672000 193 153 27
0.024231 0.103305 0.672000 197 158 29
0.025931 0.103151 0.671000 195 156 27
0.027626 0.102998 0.670000 196 157 38
0.029360 0.102998 0.670000 194 154 40
0.031093 0.102998 0.670000 193 154 37
0.032778 0.102844 0.669000 191 153 27
0.034509 0.102844 0.669000 190 152 26
0.036240 0.102844 0.669000 192 155 24
0.037914 0.102690 0.668000 193 156 25
0.039643 0.102690 0.668000 200 164 44
0.041309 0.102537 0.667000 200 163 50
0.043035 0.102537 0.667000 199 162 49
0.044761 0.102537 0.667000 205 169 60
0.046417 0.102383 0.666000 201 167 62
0.048141 0.102383 0.666000 203 169 64
0.049864 0.102383 0.666000 203 167 60
0.051587 0.102383 0.666000 198 159 42
0.053311 0.102383 0.666000 195 157 33
0.055117 0.102537 0.667000 188 150 24
0.056843 0.102537 0.667000 203 165 57
0.058568 0.102537 0.667000 200 162 54
0.060385 0.102690 0.668000 193 156 43
0.062113 0.102690 0.668000 197 160 47
0.063937 0.102844 0.669000 198 158 44
0.065668 0.102844 0.669000 201 161 37
0.067399 0.102844 0.669000 194 154 30
0.069131 0.102844 0.669000 178 139 10
0.070756 0.102690 0.668000 203 167 49
0.072484 0.102690 0.668000 190 155 43
0.074102 0.102537 0.667000 190 155 41
0.075714 0.102383 0.666000 190 155 41
0.077437 0.102383 0.666000 191 156 42
0.079042 0.102229 0.665000 191 159 42
0.080641 0.102075 0.664000 189 156 32
0.082359 0.102075 0.664000 183 150 26
0.084077 0.102075 0.664000 184 150 20
0.085795 0.102075 0.664000 190 153 24
0.087382 0.101922 0.663000 193 156 25
0.089097 0.101922 0.663000 186 149 18
0.090813 0.101922 0.663000 186 149 18
0.092668 0.102075 0.664000 185 149 12
0.094386 0.102075 0.664000 187 149 10
0.096104 0.102075 0.664000 187 150 8
0.097822 0.102075 0.664000 187 150 8
0.099690 0.102229 0.665000 186 149 7
0.101564 0.102383 0.666000 182 144 5
0.103287 0.102383 0.666000 184 144 6
0.105010 0.102383 0.666000 183 143 7
0.106733 0.102383 0.666000 182 142 6
0.108457 0.102383 0.666000 180 140 4
0.110346 0.102537 0.667000 180 139 7
0.112239 0.102690 0.668000 179 140 11
0.114139 0.102844 0.669000 171 133 9
0.115870 0.102844 0.669000 169 131 7
0.117776 0.102998 0.670000 162 126 6
0.119867 0.103305 0.672000 162 125 12
0.121968 0.103613 0.674000 146 111 15
0.124079 0.103920 0.676000 143 108 12
0.126014 0.104074 0.677000 139 101 33
0.128332 0.104535 0.680000 135 100 45
0.130474 0.104842 0.682000 123 99 72
0.132821 0.105304 0.685000 118 106 88
0.135183 0.105765 0.688000 114 102 84
0.137162 0.105919 0.689000 108 100 88
0.139348 0.106226 0.691000 102 95 87
0.141545 0.106533 0.693000 101 102 91
0.143545 0.106687 0.694000 103 104 93
0.012166 0.105982 0.678000 169 138 18
0.013900 0.105826 0.677000 174 141 17
0.015629 0.105669 0.676000 179 141 15
0.017327 0.105357 0.674000 180 142 16
0.019042 0.105200 0.673000 186 146 20
0.020753 0.105044 0.672000 188 148 22
0.022492 0.105044 0.672000 188 148 22
0.024231 0.105044 0.672000 192 153 24
0.025892 0.104731 0.670000 194 155 26
0.027585 0.104575 0.669000 196 158 34
0.029360 0.104731 0.670000 196 157 38
0.031047 0.104575 0.669000 195 156 37
0.032778 0.104575 0.669000 200 162 38
0.034509 0.104575 0.669000 196 158 34
0.036186 0.104419 0.668000 198 160 34
0.037914 0.104419 0.668000 195 158 29
0.039584 0.104262 0.667000 210 174 56
0.041247 0.104106 0.666000 220 184 77
0.042971 0.104106 0.666000 226 190 83
0.044694 0.104106 0.666000 235 198 96
0.046417 0.104106 0.666000 214 182 80
0.048068 0.103950 0.665000 218 184 79
0.049864 0.104106 0.666000 209 172 68
0.051587 0.104106 0.666000 219 182 78
0.053231 0.103950 0.665000 195 161 56
0.055034 0.104106 0.666000 201 171 67
0.056757 0.104106 0.666000 223 193 105
0.058481 0.104106 0.666000 217 187 99
0.060204 0.104106 0.666000 217 190 98
0.061927 0.104106 0.666000 224 197 105
0.063746 0.104262 0.667000 225 192 93
0.065472 0.104262 0.667000 191 154 41
0.067198 0.104262 0.667000 189 152 39
0.068924 0.104262 0.667000 192 155 42
0.070650 0.104262 0.667000 195 160 46
0.072267 0.104106 0.666000 196 162 57
0.073990 0.104106 0.666000 196 162 61
0.075714 0.104106 0.666000 202 168 67
0.077437 0.104106 0.666000 212 181 84
0.079042 0.103950 0.665000 205 175 71
0.080641 0.103794 0.664000 186 154 37
0.082359 0.103794 0.664000 186 148 24
0.084077 0.103794 0.664000 186 148 24
0.085795 0.103794 0.664000 189 149 23
0.087513 0.103794 0.664000 194 155 26
0.089097 0.103637 0.663000 186 147 16
0.090813 0.103637 0.663000 185 146 15
0.092528 0.103637 0.663000 186 148 11
0.094386 0.103794 0.664000 185 147 10
0.096104 0.103794 0.664000 186 148 11
0.097822 0.103794 0.664000 186 148 11
0.099690 0.103950 0.665000 183 145 8
0.101564 0.104106 0.666000 183 142 10
0.103287 0.104106 0.666000 183 142 10
0.105010 0.104106 0.666000 181 141 5
0.106733 0.104106 0.666000 182 142 6
0.108620 0.104262 0.667000 177 137 1
0.110346 0.104262 0.667000 179 138 10
0.112407 0.104575 0.669000 174 136 14
0.114139 0.104575 0.669000 167 128 11
0.115870 0.104575 0.669000 166 127 10
0.118128 0.105044 0.672000 158 121 8
0.120045 0.105200 0.673000 156 119 19
0.122149 0.105513 0.675000 147 112 29
0.124262 0.105826 0.677000 138 103 20
0.126573 0.106295 0.680000 130 96 43
0.128521 0.106451 0.681000 122 99 69
0.130857 0.106920 0.684000 116 103 81
0.133015 0.107232 0.686000 102 96 81
0.135379 0.107701 0.689000 96 90 75
0.137361 0.107858 0.690000 97 93 86
0.139550 0.108170 0.692000 97 95 87
0.141545 0.108327 0.693000 101 105 98
0.013900 0.107577 0.677000 170 136 17
0.015629 0.107419 0.676000 177 139 15
0.017352 0.107260 0.675000 179 141 17
0.019071 0.107101 0.674000 183 143 17
0.020784 0.106942 0.673000 185 145 19
0.022492 0.106783 0.672000 185 145 19
0.024231 0.106783 0.672000 187 148 19
0.025931 0.106624 0.671000 185 146 17
0.027626 0.106465 0.670000 187 148 17
0.029316 0.106306 0.669000 188 149 18
0.031047 0.106306 0.669000 190 149 19
0.032778 0.106306 0.669000 194 153 25
0.034457 0.106147 0.668000 195 154 26
0.036132 0.105988 0.667000 194 153 25
0.037858 0.105988 0.667000 193 152 24
0.039524 0.105829 0.666000 191 150 20
0.041247 0.105829 0.666000 190 146 19
0.042971 0.105829 0.666000 191 147 20
0.044627 0.105671 0.665000 193 148 24
0.046278 0.105512 0.664000 187 145 22
0.048068 0.105671 0.665000 188 146 23
0.049789 0.105671 0.665000 193 153 29
0.051432 0.105512 0.664000 195 155 31
0.053231 0.105671 0.665000 192 153 34
0.054869 0.105512 0.664000 194 155 38
0.056672 0.105671 0.665000 194 156 48
0.058393 0.105671 0.665000 208 170 62
0.060114 0.105671 0.665000 196 157 54
0.061927 0.105829 0.666000 209 178 81
0.063651 0.105829 0.666000 216 180 71
0.065374 0.105829 0.666000 191 151 37
0.067097 0.105829 0.666000 190 150 36
0.068821 0.105829 0.666000 196 159 46
0.070544 0.105829 0.666000 197 162 50
0.072267 0.105829 0.666000 204 170 67
0.073990 0.105829 0.666000 196 164 60
0.075714 0.105829 0.666000 204 172 68
0.077437 0.105829 0.666000 190 158 54
0.079042 0.105671 0.665000 200 169 60
0.080762 0.105671 0.665000 185 150 34
0.082359 0.105512 0.664000 186 148 26
0.084077 0.105512 0.664000 186 148 26
0.085795 0.105512 0.664000 185 147 21
0.087513 0.105512 0.664000 185 146 15
0.089232 0.105512 0.664000 183 144 13
0.090950 0.105512 0.664000 183 144 13
0.092668 0.105512 0.664000 182 143 12
0.094386 0.105512 0.664000 182 143 12
0.096104 0.105512 0.664000 184 143 11
0.097822 0.105512 0.664000 183 143 7
0.099690 0.105671 0.665000 183 143 7
0.101564 0.105829 0.666000 184 143 11
0.103287 0.105829 0.666000 182 141 9
0.105010 0.105829 0.666000 179 138 8
0.106733 0.105829 0.666000 173 134 5
0.108620 0.105988 0.667000 173 134 5
0.110511 0.106147 0.668000 171 133 11
0.112407 0.106306 0.669000 168 133 19
0.114309 0.106465 0.670000 157 120 18
0.116389 0.106783 0.672000 153 116 14
0.118304 0.106942 0.673000 154 115 23
0.120224 0.107101 0.674000 135 99 31
0.122511 0.107577 0.677000 116 91 44
0.124629 0.107895 0.679000 113 88 41
0.126759 0.108213 0.681000 113 89 66
0.128898 0.108531 0.683000 109 100 81
0.131048 0.108849 0.685000 104 98 83
0.133402 0.109325 0.688000 86 82 75
0.135379 0.109484 0.689000 91 87 80
0.137560 0.109802 0.691000 100 97 92
0.015675 0.109491 0.678000 169 134 18
0.017404 0.109329 0.677000 170 135 19
0.019099 0.109006 0.675000 172 136 16
0.020815 0.108845 0.674000 178 140 18
0.022525 0.108683 0.673000 180 142 18
0.024231 0.108522 0.672000 182 142 16
0.025931 0.108360 0.671000 182 142 16
0.027626 0.108199 0.670000 183 144 15
0.029360 0.108199 0.670000 185 146 13
0.031047 0.108037 0.669000 187 148 15
0.032778 0.108037 0.669000 189 148 16
0.034457 0.107876 0.668000 190 149 17
0.036132 0.107714 0.667000 188 147 17
0.037801 0.107553 0.666000 188 147 15
0.039524 0.107553 0.666000 191 147 16
0.041247 0.107553 0.666000 191 147 16
0.042906 0.107391 0.665000 192 148 17
0.044627 0.107391 0.665000 191 147 16
0.046278 0.107230 0.664000 191 147 18
0.047996 0.107230 0.664000 192 148 19
0.049714 0.107230 0.664000 194 155 26
0.051432 0.107230 0.664000 194 155 26
0.053151 0.107230 0.664000 195 156 27
0.054869 0.107230 0.664000 195 158 29
0.056587 0.107230 0.664000 198 160 38
0.058305 0.107230 0.664000 186 146 32
0.060023 0.107230 0.664000 188 148 34
0.061741 0.107230 0.664000 191 152 33
0.063555 0.107391 0.665000 188 150 26
0.065374 0.107553 0.666000 190 152 26
0.067097 0.107553 0.666000 190 152 26
0.068717 0.107391 0.665000 183 145 21
0.070438 0.107391 0.665000 194 155 36
0.072267 0.107553 0.666000 192 152 38
0.073990 0.107553 0.666000 191 151 37
0.075714 0.107553 0.666000 187 147 33
0.077437 0.107553 0.666000 184 147 16
0.079160 0.107553 0.666000 180 143 14
0.080884 0.107553 0.666000 183 145 19
0.082607 0.107553 0.666000 185 146 17
0.084204 0.107391 0.665000 185 146 17
0.085924 0.107391 0.665000 183 144 13
0.087645 0.107391 0.665000 180 141 10
0.089366 0.107391 0.665000 182 143 12
0.090950 0.107230 0.664000 179 140 9
0.092668 0.107230 0.664000 180 141 10
0.094386 0.107230 0.664000 180 141 12
0.096104 0.107230 0.664000 181 142 9
0.097822 0.107230 0.664000 181 144 2
0.099690 0.107391 0.665000 179 142 0
0.101564 0.107553 0.666000 179 141 2
0.103287 0.107553 0.666000 181 140 8
0.105010 0.107553 0.666000 178 139 10
0.106894 0.107714 0.667000 172 131 12
0.108782 0.107876 0.668000 173 132 13
0.110676 0.108037 0.669000 170 131 14
0.112576 0.108199 0.670000 159 126 16
0.114650 0.108522 0.672000 152 116 23
0.116562 0.108683 0.673000 147 111 18
0.118480 0.108845 0.674000 144 106 27
0.120759 0.109329 0.677000 122 93 38
0.122692 0.109491 0.678000 94 76 44
0.124813 0.109814 0.680000 99 81 49
0.127131 0.110298 0.683000 106 92 75
0.129276 0.110621 0.685000 101 93 81
0.131431 0.110944 0.687000 97 93 86
0.133596 0.111267 0.689000 112 107 103
0.135772 0.111590 0.691000 107 102 98
0.020877 0.110917 0.676000 172 136 18
0.022559 0.110589 0.674000 173 135 11
0.024267 0.110425 0.673000 177 140 11
0.025970 0.110261 0.672000 178 141 12
0.027667 0.110096 0.671000 183 144 15
0.029360 0.109932 0.670000 182 143 12
0.031093 0.109932 0.670000 182 143 10
0.032778 0.109768 0.669000 184 143 13
0.034509 0.109768 0.669000 186 145 15
0.036186 0.109604 0.668000 184 143 13
0.037858 0.109440 0.667000 187 146 14
0.039524 0.109276 0.666000 190 147 12
0.041247 0.109276 0.666000 191 148 13
0.042971 0.109276 0.666000 192 149 14
0.044627 0.109112 0.665000 191 148 11
0.046348 0.109112 0.665000 189 150 9
0.047996 0.108948 0.664000 191 151 13
0.049714 0.108948 0.664000 194 155 22
0.051432 0.108948 0.664000 188 149 16
0.053151 0.108948 0.664000 193 153 17
0.054869 0.108948 0.664000 196 156 20
0.056587 0.108948 0.664000 192 153 20
0.058305 0.108948 0.664000 188 149 16
0.060023 0.108948 0.664000 185 146 13
0.061834 0.109112 0.665000 185 147 10
0.063555 0.109112 0.665000 187 147 11
0.065374 0.109276 0.666000 189 149 13
0.067097 0.109276 0.666000 184 144 8
0.068821 0.109276 0.666000 188 147 15
0.070544 0.109276 0.666000 186 145 17
0.072267 0.109276 0.666000 187 147 23
0.073990 0.109276 0.666000 186 146 22
0.075714 0.109276 0.666000 185 145 21
0.077437 0.109276 0.666000 183 145 8
0.079160 0.109276 0.666000 183 144 11
0.080884 0.109276 0.666000 182 143 10
0.082607 0.109276 0.666000 182 143 10
0.084330 0.109276 0.666000 181 142 9
0.086054 0.109276 0.666000 180 141 8
0.087777 0.109276 0.666000 179 140 7
0.089500 0.109276 0.666000 180 141 8
0.091224 0.109276 0.666000 179 140 7
0.092947 0.109276 0.666000 181 142 9
0.094528 0.109112 0.665000 180 141 10
0.096249 0.109112 0.665000 180 141 10
0.097970 0.109112 0.665000 180 141 8
0.099840 0.109276 0.666000 179 140 7
0.101564 0.109276 0.666000 175 136 5
0.103287 0.109276 0.666000 174 133 5
0.105168 0.109440 0.667000 173 134 17
0.107054 0.109604 0.668000 164 122 20
0.108945 0.109768 0.669000 162 120 18
0.110842 0.109932 0.670000 152 114 17
0.112912 0.110261 0.672000 154 118 29
0.114992 0.110589 0.674000 139 107 35
0.116909 0.110753 0.675000 125 93 21
0.119007 0.111081 0.677000 106 79 28
0.121116 0.111409 0.679000 101 86 58
0.123053 0.111573 0.680000 97 94 80
0.125364 0.112065 0.683000 106 103 89
0.127503 0.112394 0.685000 100 98 86
0.129653 0.112722 0.687000 89 87 77
0.024339 0.112499 0.675000 171 132 13
0.026047 0.112333 0.674000 172 133 14
0.027708 0.111999 0.672000 174 134 10
0.029447 0.111999 0.672000 180 138 13
0.031186 0.111999 0.672000 180 138 13
0.032876 0.111833 0.671000 179 139 15
0.034561 0.111666 0.670000 180 140 16
0.036240 0.111499 0.669000 181 141 15
0.037971 0.111499 0.669000 182 143 14
0.039643 0.111333 0.668000 183 144 15
0.041371 0.111333 0.668000 187 146 14
0.043100 0.111333 0.668000 187 146 14
0.044761 0.111166 0.667000 188 148 12
0.046417 0.110999 0.666000 189 149 11
0.048141 0.110999 0.666000 190 150 14
0.049864 0.110999 0.666000 197 156 24
0.051587 0.110999 0.666000 189 148 16
0.053311 0.110999 0.666000 188 148 12
0.054951 0.110833 0.665000 187 147 11
0.056672 0.110833 0.665000 188 147 15
0.058481 0.110999 0.666000 188 147 15
0.060204 0.110999 0.666000 184 143 11
0.061927 0.110999 0.666000 186 146 10
0.063651 0.110999 0.666000 184 144 6
0.065374 0.110999 0.666000 187 147 9
0.067097 0.110999 0.666000 184 144 6
0.068821 0.110999 0.666000 184 143 13
0.070544 0.110999 0.666000 182 140 17
0.072267 0.110999 0.666000 184 142 21
0.073990 0.110999 0.666000 181 139 16
0.075714 0.110999 0.666000 183 141 18
0.077437 0.110999 0.666000 181 141 15
0.079160 0.110999 0.666000 180 141 10
0.080884 0.110999 0.666000 180 141 10
0.082607 0.110999 0.666000 177 136 4
0.084330 0.110999 0.666000 177 136 4
0.086054 0.110999 0.666000 179 138 6
0.087777 0.110999 0.666000 175 136 3
0.089500 0.110999 0.666000 178 140 3
0.091224 0.110999 0.666000 179 141 4
0.092947 0.110999 0.666000 185 146 13
0.094670 0.110999 0.666000 178 139 10
0.096394 0.110999 0.666000 174 133 14
0.098117 0.110999 0.666000 173 131 17
0.099840 0.110999 0.666000 173 131 17
0.101564 0.110999 0.666000 169 127 13
0.103442 0.111166 0.667000 167 125 15
0.105326 0.111333 0.668000 158 120 14
0.107214 0.111499 0.669000 153 115 20
0.109108 0.111666 0.670000 153 115 20
0.111173 0.111999 0.672000 137 102 27
0.113248 0.112333 0.674000 130 100 41
0.115162 0.112499 0.675000 112 87 51
0.117255 0.112833 0.677000 120 91 36
0.119534 0.113333 0.680000 95 75 39
0.121472 0.113499 0.681000 100 91 72
0.123596 0.113833 0.683000 100 96 85
0.125731 0.114166 0.685000 104 100 89
0.127689 0.114333 0.686000 100 96 87
0.129842 0.114666 0.688000 96 94 84
0.029535 0.114077 0.674000 173 134 15
0.031279 0.114077 0.674000 175 134 17
0.033023 0.114077 0.674000 175 134 17
0.034664 0.113738 0.672000 178 137 20
0.036403 0.113738 0.672000 178 137 18
0.038085 0.113569 0.671000 180 140 16
0.039821 0.113569 0.671000 180 140 16
0.041495 0.113400 0.670000 179 139 15
0.043229 0.113400 0.670000 180 140 16
0.044895 0.113230 0.669000 181 139 16
0.046627 0.113230 0.669000 183 141 18
0.048285 0.113061 0.668000 186 144 19
0.050014 0.113061 0.668000 182 141 13
0.051665 0.112892 0.667000 186 145 17
0.053391 0.112892 0.667000 183 142 12
0.055117 0.112892 0.667000 181 140 10
0.056843 0.112892 0.667000 183 142 14
0.058568 0.112892 0.667000 182 141 13
0.060294 0.112892 0.667000 183 142 14
0.062113 0.113061 0.668000 182 141 11
0.063842 0.113061 0.668000 182 141 9
0.065570 0.113061 0.668000 180 139 7
0.067299 0.113061 0.668000 181 140 8
0.069027 0.113061 0.668000 180 138 13
0.070650 0.112892 0.667000 179 137 16
0.072376 0.112892 0.667000 179 137 14
0.074102 0.112892 0.667000 176 134 11
0.075827 0.112892 0.667000 175 133 10
0.077553 0.112892 0.667000 177 135 12
0.079160 0.112723 0.666000 174 134 8
0.080884 0.112723 0.666000 174 134 10
0.082607 0.112723 0.666000 176 134 9
0.084330 0.112723 0.666000 176 134 9
0.086054 0.112723 0.666000 176 134 9
0.087909 0.112892 0.667000 174 134 8
0.089635 0.112892 0.667000 175 136 7
0.091361 0.112892 0.667000 176 137 8
0.092947 0.112723 0.666000 181 142 13
0.094670 0.112723 0.666000 173 133 11
0.096394 0.112723 0.666000 173 132 13
0.098117 0.112723 0.666000 175 133 19
0.099840 0.112723 0.666000 169 127 13
0.101564 0.112723 0.666000 160 119 14
0.103442 0.112892 0.667000 151 108 15
0.105483 0.113230 0.669000 147 106 17
0.107375 0.113400 0.670000 140 104 26
0.109271 0.113569 0.671000 135 99 21
0.111338 0.113908 0.673000 129 101 41
0.113416 0.114246 0.675000 108 86 51
0.115503 0.114585 0.677000 97 81 58
0.117775 0.115092 0.680000 100 84 61
0.119886 0.115431 0.682000 102 91 68
0.121829 0.115600 0.683000 98 90 76
0.123958 0.115939 0.685000 97 90 80
0.033170 0.116336 0.677000 168 130 22
0.034870 0.116164 0.676000 171 133 25
0.036565 0.115993 0.675000 162 126 8
0.038255 0.115821 0.674000 169 133 13
0.039999 0.115821 0.674000 171 135 15
0.041743 0.115821 0.674000 173 134 15
0.043422 0.115649 0.673000 176 137 18
0.045097 0.115477 0.672000 173 134 15
0.046766 0.115305 0.671000 179 138 19
0.048502 0.115305 0.671000 178 138 16
0.050164 0.115133 0.670000 180 138 15
0.051820 0.114962 0.669000 181 140 12
0.053551 0.114962 0.669000 183 142 14
0.055282 0.114962 0.669000 182 141 13
0.057013 0.114962 0.669000 181 140 12
0.058744 0.114962 0.669000 181 140 12
0.060475 0.114962 0.669000 181 139 14
0.062206 0.114962 0.669000 179 137 12
0.063937 0.114962 0.669000 180 139 11
0.065767 0.115133 0.670000 176 135 5
0.067500 0.115133 0.670000 179 138 8
0.069131 0.114962 0.669000 177 135 10
0.070862 0.114962 0.669000 176 134 13
0.072593 0.114962 0.669000 175 133 12
0.074324 0.114962 0.669000 174 132 11
0.075941 0.114790 0.668000 170 128 7
0.077553 0.114618 0.667000 173 133 11
0.079279 0.114618 0.667000 173 133 9
0.081005 0.114618 0.667000 170 132 10
0.082731 0.114618 0.667000 167 128 11
0.084330 0.114446 0.666000 167 128 11
0.086054 0.114446 0.666000 167 127 15
0.087909 0.114618 0.667000 167 127 15
0.089635 0.114618 0.667000 166 126 14
0.091361 0.114618 0.667000 164 124 12
0.092947 0.114446 0.666000 160 123 10
0.094670 0.114446 0.666000 156 120 11
0.096394 0.114446 0.666000 163 124 23
0.098117 0.114446 0.666000 149 110 20
0.099840 0.114446 0.666000 146 107 17
0.101564 0.114446 0.666000 146 105 27
0.103597 0.114790 0.668000 141 102 32
0.105483 0.114962 0.669000 133 96 35
0.107375 0.115133 0.670000 113 83 47
0.109434 0.115477 0.672000 109 79 43
0.111504 0.115821 0.674000 94 77 52
0.113752 0.116336 0.677000 90 78 60
0.116015 0.116852 0.680000 89 83 70
0.118121 0.117196 0.682000 108 102 89
0.120237 0.117539 0.684000 114 108 93
0.122364 0.117883 0.686000 124 123 106
0.041867 0.117914 0.676000 169 133 15
0.043616 0.117914 0.676000 169 133 15
0.045298 0.117739 0.675000 171 135 17
0.046975 0.117565 0.674000 174 135 18
0.048647 0.117390 0.673000 174 135 16
0.050388 0.117390 0.673000 174 133 14
0.052052 0.117216 0.672000 175 134 15
0.053791 0.117216 0.672000 175 134 15
0.055530 0.117216 0.672000 176 135 16
0.057269 0.117216 0.672000 176 135 18
0.059007 0.117216 0.672000 172 131 14
0.060746 0.117216 0.672000 173 131 17
0.062485 0.117216 0.672000 174 132 20
0.064224 0.117216 0.672000 169 127 13
0.065963 0.117216 0.672000 172 131 12
0.067702 0.117216 0.672000 174 133 14
0.069337 0.117041 0.671000 169 129 5
0.070968 0.116867 0.670000 169 127 6
0.072701 0.116867 0.670000 168 126 5
0.074324 0.116693 0.669000 167 126 9
0.076055 0.116693 0.669000 167 126 9
0.077670 0.116518 0.668000 162 122 12
0.079398 0.116518 0.668000 163 122 17
0.081127 0.116518 0.668000 163 125 19
0.082855 0.116518 0.668000 162 123 20
0.084584 0.116518 0.668000 161 122 19
0.086183 0.116344 0.667000 157 118 17
0.088041 0.116518 0.668000 155 116 15
0.089769 0.116518 0.668000 156 117 18
0.091498 0.116518 0.668000 155 116 17
0.093226 0.116518 0.668000 146 108 13
0.094812 0.116344 0.667000 145 110 12
0.096538 0.116344 0.667000 143 106 20
0.098264 0.116344 0.667000 143 105 28
0.099990 0.116344 0.667000 140 102 25
0.101716 0.116344 0.667000 139 102 31
0.103752 0.116693 0.669000 134 97 36
0.105641 0.116867 0.670000 116 86 50
0.107695 0.117216 0.672000 92 67 47
0.109597 0.117390 0.673000 104 79 59
0.111834 0.117914 0.676000 99 85 66
0.113920 0.118263 0.678000 88 81 64
0.116186 0.118786 0.681000 103 97 84
0.053951 0.119309 0.674000 157 118 19
0.055695 0.119309 0.674000 171 132 33
0.057439 0.119309 0.674000 164 125 26
0.059183 0.119309 0.674000 167 128 29
0.060927 0.119309 0.674000 161 122 21
0.062671 0.119309 0.674000 169 128 21
0.064415 0.119309 0.674000 168 125 18
0.066061 0.119132 0.673000 171 129 19
0.067802 0.119132 0.673000 171 129 19
0.069441 0.118955 0.672000 167 125 11
0.071179 0.118955 0.672000 167 125 11
0.072810 0.118778 0.671000 164 122 8
0.074546 0.118778 0.671000 165 123 13
0.076169 0.118601 0.670000 162 120 10
0.077786 0.118424 0.669000 164 122 20
0.079517 0.118424 0.669000 157 118 17
0.081248 0.118424 0.669000 157 117 21
0.082979 0.118424 0.669000 156 118 21
0.084710 0.118424 0.669000 149 111 14
0.086441 0.118424 0.669000 152 114 19
0.088172 0.118424 0.669000 148 110 15
0.089903 0.118424 0.669000 148 109 19
0.091635 0.118424 0.669000 149 110 20
0.093366 0.118424 0.669000 136 101 18
0.095097 0.118424 0.669000 130 94 26
0.096828 0.118424 0.669000 125 94 40
0.098559 0.118424 0.669000 118 89 48
0.100290 0.118424 0.669000 106 77 36
0.102021 0.118424 0.669000 96 69 34
0.103907 0.118601 0.670000 99 77 49
0.105956 0.118955 0.672000 92 78 63
0.057695 0.121592 0.677000 148 112 21
0.059447 0.121592 0.677000 153 117 26
0.061198 0.121592 0.677000 156 117 27
0.062950 0.121592 0.677000 154 115 23
0.064606 0.121412 0.676000 153 114 24
0.066257 0.121232 0.675000 156 117 27
0.068004 0.121232 0.675000 147 108 18
0.069647 0.121053 0.674000 153 112 21
0.071285 0.120873 0.673000 153 113 19
0.073027 0.120873 0.673000 154 114 20
0.074657 0.120694 0.672000 148 107 18
0.076282 0.120514 0.671000 151 110 21
0.078018 0.120514 0.671000 150 111 23
0.079636 0.120334 0.670000 148 112 23
0.081370 0.120334 0.670000 139 104 19
0.083103 0.120334 0.670000 134 100 22
0.084837 0.120334 0.670000 140 106 28
0.086700 0.120514 0.671000 129 97 21
0.088436 0.120514 0.671000 131 100 30
0.090307 0.120694 0.672000 127 100 45
0.092045 0.120694 0.672000 123 96 41
0.093784 0.120694 0.672000 99 77 38
0.095381 0.120514 0.671000 88 69 44
0.097117 0.120514 0.671000 88 71 53
0.099001 0.120694 0.672000 86 74 54
0.100740 0.120694 0.672000 88 76 56
0.102479 0.120694 0.672000 88 83 61
